<svg width="18" height="16" viewBox="0 0 18 16" fill="none" xmlns="http://www.w3.org/2000/svg">
<path d="M12.8069 10.3276C13.6276 9.25241 14.1186 7.93174 14.1186 6.50002C14.1186 2.91603 11.0789 0 7.34295 0C3.60701 0 0.567383 2.91603 0.567383 6.50002C0.567383 10.084 3.60705 13 7.34298 13C8.8354 13 10.2122 12.529 11.333 11.7417L15.7718 16L17.2458 14.5859L12.8069 10.3276ZM7.34298 11C4.75632 11 2.6522 8.98148 2.6522 6.50002C2.6522 4.01857 4.75632 2.00002 7.34298 2.00002C9.92965 2.00002 12.0338 4.01857 12.0338 6.50002C12.0338 8.98148 9.92961 11 7.34298 11Z" fill="black"/>
</svg>
